<mxfile host="app.diagrams.net" modified="2024-04-12T22:10:54.232Z" agent="Mozilla/5.0 (Windows NT 10.0; Win64; x64; rv:124.0) Gecko/20100101 Firefox/124.0" version="21.6.8" etag="P_LI2HA-uq4Y3Y79dsw9" type="github">
  <diagram name="Page-1" id="ndFW5UgVSR0Z7tAjdghs">
    <mxGraphModel>
      <root>
        <mxCell id="0" />
        <mxCell id="1" parent="0" />
      </root>
    </mxGraphModel>
  </diagram>
</mxfile>
